STARTFONT 2.1
FONT -FontForge-Epson Pixeled-Book-R-Normal--9-90-72-72-P-67-ISO10646-1
SIZE 9 72 72
FONTBOUNDINGBOX 7 9 0 -1
COMMENT "Generated by fontforge, http://fontforge.sourceforge.net"
COMMENT "Copyright Typo2 2018"
STARTPROPERTIES 39
FOUNDRY "FontForge"
FAMILY_NAME "Epson Pixeled"
WEIGHT_NAME "Book"
SLANT "R"
SETWIDTH_NAME "Normal"
ADD_STYLE_NAME ""
PIXEL_SIZE 9
POINT_SIZE 90
RESOLUTION_X 72
RESOLUTION_Y 72
SPACING "P"
AVERAGE_WIDTH 67
CHARSET_REGISTRY "ISO10646"
CHARSET_ENCODING "1"
FONTNAME_REGISTRY ""
CHARSET_COLLECTIONS "ISO10646-1"
FONT_NAME "Epson-Pixeled"
FACE_NAME "Epson Pixeled Regular"
COPYRIGHT "Copyright Typo2 2018"
FONT_VERSION "1.0"
FONT_ASCENT 7
FONT_DESCENT 2
UNDERLINE_POSITION 1
UNDERLINE_THICKNESS 1
X_HEIGHT 5
CAP_HEIGHT 7
RAW_ASCENT 799
RAW_DESCENT 200
NORM_SPACE 5
RELATIVE_WEIGHT 40
RELATIVE_SETWIDTH 50
SUPERSCRIPT_X 0
SUPERSCRIPT_Y 4
SUPERSCRIPT_SIZE 4
SUBSCRIPT_X 0
SUBSCRIPT_Y 0
SUBSCRIPT_SIZE 4
AVG_LOWERCASE_WIDTH 71
AVG_UPPERCASE_WIDTH 78
ENDPROPERTIES
CHARS 95
STARTCHAR space
ENCODING 32
SWIDTH 555 0
DWIDTH 5 0
BBX 1 1 0 0
BITMAP
00
ENDCHAR
STARTCHAR exclam
ENCODING 33
SWIDTH 222 0
DWIDTH 2 0
BBX 1 9 0 -1
BITMAP
80
80
80
80
80
80
80
00
80
ENDCHAR
STARTCHAR quotedbl
ENCODING 34
SWIDTH 444 0
DWIDTH 4 0
BBX 3 2 0 6
BITMAP
A0
A0
ENDCHAR
STARTCHAR numbersign
ENCODING 35
SWIDTH 888 0
DWIDTH 8 0
BBX 7 7 0 1
BITMAP
28
28
FE
28
FE
28
28
ENDCHAR
STARTCHAR dollar
ENCODING 36
SWIDTH 888 0
DWIDTH 8 0
BBX 7 8 0 0
BITMAP
10
7C
92
90
7C
12
92
7C
ENDCHAR
STARTCHAR percent
ENCODING 37
SWIDTH 888 0
DWIDTH 8 0
BBX 7 7 0 0
BITMAP
42
A4
48
10
24
4A
84
ENDCHAR
STARTCHAR ampersand
ENCODING 38
SWIDTH 888 0
DWIDTH 8 0
BBX 7 8 0 0
BITMAP
78
84
84
58
66
98
88
76
ENDCHAR
STARTCHAR quotesingle
ENCODING 39
SWIDTH 222 0
DWIDTH 2 0
BBX 1 2 0 6
BITMAP
80
80
ENDCHAR
STARTCHAR parenleft
ENCODING 40
SWIDTH 444 0
DWIDTH 4 0
BBX 3 8 0 0
BITMAP
20
40
80
80
80
80
40
20
ENDCHAR
STARTCHAR parenright
ENCODING 41
SWIDTH 444 0
DWIDTH 4 0
BBX 3 8 0 0
BITMAP
80
40
20
20
20
20
40
80
ENDCHAR
STARTCHAR asterisk
ENCODING 42
SWIDTH 666 0
DWIDTH 6 0
BBX 5 5 0 2
BITMAP
A8
70
D8
70
A8
ENDCHAR
STARTCHAR plus
ENCODING 43
SWIDTH 666 0
DWIDTH 6 0
BBX 5 5 0 1
BITMAP
20
20
F8
20
20
ENDCHAR
STARTCHAR comma
ENCODING 44
SWIDTH 333 0
DWIDTH 3 0
BBX 2 2 0 -1
BITMAP
40
80
ENDCHAR
STARTCHAR hyphen
ENCODING 45
SWIDTH 666 0
DWIDTH 6 0
BBX 5 1 0 3
BITMAP
F8
ENDCHAR
STARTCHAR period
ENCODING 46
SWIDTH 222 0
DWIDTH 2 0
BBX 1 1 0 -1
BITMAP
80
ENDCHAR
STARTCHAR slash
ENCODING 47
SWIDTH 888 0
DWIDTH 8 0
BBX 7 7 0 0
BITMAP
02
04
08
10
20
40
80
ENDCHAR
STARTCHAR zero
ENCODING 48
SWIDTH 888 0
DWIDTH 8 0
BBX 7 8 0 0
BITMAP
7C
82
86
8A
92
A2
C2
7C
ENDCHAR
STARTCHAR one
ENCODING 49
SWIDTH 444 0
DWIDTH 4 0
BBX 3 8 0 0
BITMAP
C0
40
40
40
40
40
40
E0
ENDCHAR
STARTCHAR two
ENCODING 50
SWIDTH 888 0
DWIDTH 8 0
BBX 7 8 0 0
BITMAP
7C
82
84
08
10
20
40
FE
ENDCHAR
STARTCHAR three
ENCODING 51
SWIDTH 888 0
DWIDTH 8 0
BBX 7 8 0 0
BITMAP
7C
82
02
02
3C
02
82
7C
ENDCHAR
STARTCHAR four
ENCODING 52
SWIDTH 888 0
DWIDTH 8 0
BBX 7 8 0 0
BITMAP
04
0C
14
24
44
FE
04
04
ENDCHAR
STARTCHAR five
ENCODING 53
SWIDTH 888 0
DWIDTH 8 0
BBX 7 8 0 0
BITMAP
FE
80
80
FC
02
02
82
7C
ENDCHAR
STARTCHAR six
ENCODING 54
SWIDTH 888 0
DWIDTH 8 0
BBX 7 8 0 0
BITMAP
7C
82
80
FC
82
82
82
7C
ENDCHAR
STARTCHAR seven
ENCODING 55
SWIDTH 888 0
DWIDTH 8 0
BBX 7 8 0 0
BITMAP
FE
82
04
08
10
20
40
80
ENDCHAR
STARTCHAR eight
ENCODING 56
SWIDTH 888 0
DWIDTH 8 0
BBX 7 8 0 0
BITMAP
7C
82
82
7C
82
82
82
7C
ENDCHAR
STARTCHAR nine
ENCODING 57
SWIDTH 888 0
DWIDTH 8 0
BBX 7 8 0 0
BITMAP
7C
82
82
82
7E
02
82
7C
ENDCHAR
STARTCHAR colon
ENCODING 58
SWIDTH 222 0
DWIDTH 2 0
BBX 1 6 0 -1
BITMAP
80
00
00
00
00
80
ENDCHAR
STARTCHAR semicolon
ENCODING 59
SWIDTH 333 0
DWIDTH 3 0
BBX 2 6 0 -1
BITMAP
40
00
00
00
40
80
ENDCHAR
STARTCHAR less
ENCODING 60
SWIDTH 444 0
DWIDTH 4 0
BBX 3 5 0 1
BITMAP
20
40
80
40
20
ENDCHAR
STARTCHAR equal
ENCODING 61
SWIDTH 666 0
DWIDTH 6 0
BBX 5 3 0 2
BITMAP
F8
00
F8
ENDCHAR
STARTCHAR greater
ENCODING 62
SWIDTH 444 0
DWIDTH 4 0
BBX 3 5 0 1
BITMAP
80
40
20
40
80
ENDCHAR
STARTCHAR question
ENCODING 63
SWIDTH 888 0
DWIDTH 8 0
BBX 7 9 0 -1
BITMAP
7C
82
02
04
08
10
10
00
10
ENDCHAR
STARTCHAR at
ENCODING 64
SWIDTH 888 0
DWIDTH 8 0
BBX 7 8 0 0
BITMAP
78
8A
9A
AA
AA
9A
82
7C
ENDCHAR
STARTCHAR A
ENCODING 65
SWIDTH 888 0
DWIDTH 8 0
BBX 7 8 0 0
BITMAP
7C
82
82
82
FE
82
82
82
ENDCHAR
STARTCHAR B
ENCODING 66
SWIDTH 888 0
DWIDTH 8 0
BBX 7 8 0 0
BITMAP
FC
82
82
FC
82
82
82
FC
ENDCHAR
STARTCHAR C
ENCODING 67
SWIDTH 888 0
DWIDTH 8 0
BBX 7 8 0 0
BITMAP
7C
82
80
80
80
80
82
7C
ENDCHAR
STARTCHAR D
ENCODING 68
SWIDTH 888 0
DWIDTH 8 0
BBX 7 8 0 0
BITMAP
FC
82
82
82
82
82
82
FC
ENDCHAR
STARTCHAR E
ENCODING 69
SWIDTH 888 0
DWIDTH 8 0
BBX 7 8 0 0
BITMAP
FE
82
80
F8
80
80
82
FE
ENDCHAR
STARTCHAR F
ENCODING 70
SWIDTH 888 0
DWIDTH 8 0
BBX 7 8 0 0
BITMAP
FE
82
80
F8
80
80
80
80
ENDCHAR
STARTCHAR G
ENCODING 71
SWIDTH 888 0
DWIDTH 8 0
BBX 7 8 0 0
BITMAP
7C
82
80
80
86
82
82
7C
ENDCHAR
STARTCHAR H
ENCODING 72
SWIDTH 888 0
DWIDTH 8 0
BBX 7 8 0 0
BITMAP
82
82
82
82
FE
82
82
82
ENDCHAR
STARTCHAR I
ENCODING 73
SWIDTH 444 0
DWIDTH 4 0
BBX 3 8 0 0
BITMAP
E0
40
40
40
40
40
40
E0
ENDCHAR
STARTCHAR J
ENCODING 74
SWIDTH 888 0
DWIDTH 8 0
BBX 7 8 0 0
BITMAP
02
02
02
02
02
02
82
7C
ENDCHAR
STARTCHAR K
ENCODING 75
SWIDTH 888 0
DWIDTH 8 0
BBX 7 8 0 0
BITMAP
82
84
88
F0
90
88
84
82
ENDCHAR
STARTCHAR L
ENCODING 76
SWIDTH 888 0
DWIDTH 8 0
BBX 7 8 0 0
BITMAP
E0
40
40
40
40
40
40
FE
ENDCHAR
STARTCHAR M
ENCODING 77
SWIDTH 888 0
DWIDTH 8 0
BBX 7 8 0 0
BITMAP
82
C6
AA
92
82
82
82
82
ENDCHAR
STARTCHAR N
ENCODING 78
SWIDTH 888 0
DWIDTH 8 0
BBX 7 8 0 0
BITMAP
82
C2
A2
92
8A
86
82
82
ENDCHAR
STARTCHAR O
ENCODING 79
SWIDTH 888 0
DWIDTH 8 0
BBX 7 8 0 0
BITMAP
7C
82
82
82
82
82
82
7C
ENDCHAR
STARTCHAR P
ENCODING 80
SWIDTH 888 0
DWIDTH 8 0
BBX 7 8 0 0
BITMAP
FC
42
42
7C
40
40
40
E0
ENDCHAR
STARTCHAR Q
ENCODING 81
SWIDTH 888 0
DWIDTH 8 0
BBX 7 9 0 -1
BITMAP
7C
82
82
82
82
82
8A
7C
04
ENDCHAR
STARTCHAR R
ENCODING 82
SWIDTH 888 0
DWIDTH 8 0
BBX 7 8 0 0
BITMAP
FC
42
42
7C
50
48
44
E2
ENDCHAR
STARTCHAR S
ENCODING 83
SWIDTH 888 0
DWIDTH 8 0
BBX 7 8 0 0
BITMAP
7C
82
80
40
3C
02
82
7C
ENDCHAR
STARTCHAR T
ENCODING 84
SWIDTH 888 0
DWIDTH 8 0
BBX 7 8 0 0
BITMAP
FE
92
10
10
10
10
10
38
ENDCHAR
STARTCHAR U
ENCODING 85
SWIDTH 888 0
DWIDTH 8 0
BBX 7 8 0 0
BITMAP
82
82
82
82
82
82
82
7C
ENDCHAR
STARTCHAR V
ENCODING 86
SWIDTH 888 0
DWIDTH 8 0
BBX 7 8 0 0
BITMAP
82
82
82
82
82
44
28
10
ENDCHAR
STARTCHAR W
ENCODING 87
SWIDTH 888 0
DWIDTH 8 0
BBX 7 8 0 0
BITMAP
82
82
82
82
82
AA
7C
28
ENDCHAR
STARTCHAR X
ENCODING 88
SWIDTH 888 0
DWIDTH 8 0
BBX 7 8 0 0
BITMAP
82
44
28
10
10
28
44
82
ENDCHAR
STARTCHAR Y
ENCODING 89
SWIDTH 888 0
DWIDTH 8 0
BBX 7 8 0 0
BITMAP
82
82
44
28
10
10
10
10
ENDCHAR
STARTCHAR Z
ENCODING 90
SWIDTH 888 0
DWIDTH 8 0
BBX 7 8 0 0
BITMAP
FE
84
08
10
20
40
82
FE
ENDCHAR
STARTCHAR bracketleft
ENCODING 91
SWIDTH 444 0
DWIDTH 4 0
BBX 3 8 0 0
BITMAP
E0
80
80
80
80
80
80
E0
ENDCHAR
STARTCHAR backslash
ENCODING 92
SWIDTH 888 0
DWIDTH 8 0
BBX 7 7 0 0
BITMAP
80
40
20
10
08
04
02
ENDCHAR
STARTCHAR bracketright
ENCODING 93
SWIDTH 444 0
DWIDTH 4 0
BBX 3 8 0 0
BITMAP
E0
20
20
20
20
20
20
E0
ENDCHAR
STARTCHAR asciicircum
ENCODING 94
SWIDTH 666 0
DWIDTH 6 0
BBX 5 3 0 5
BITMAP
20
50
88
ENDCHAR
STARTCHAR underscore
ENCODING 95
SWIDTH 888 0
DWIDTH 8 0
BBX 7 1 0 -1
BITMAP
FE
ENDCHAR
STARTCHAR grave
ENCODING 96
SWIDTH 444 0
DWIDTH 4 0
BBX 3 3 0 5
BITMAP
80
40
20
ENDCHAR
STARTCHAR a
ENCODING 97
SWIDTH 888 0
DWIDTH 8 0
BBX 7 6 0 0
BITMAP
74
8C
84
84
8C
76
ENDCHAR
STARTCHAR b
ENCODING 98
SWIDTH 888 0
DWIDTH 8 0
BBX 7 8 0 0
BITMAP
C0
40
5C
62
42
42
62
DC
ENDCHAR
STARTCHAR c
ENCODING 99
SWIDTH 888 0
DWIDTH 8 0
BBX 7 6 0 0
BITMAP
7C
82
80
80
82
7C
ENDCHAR
STARTCHAR d
ENCODING 100
SWIDTH 888 0
DWIDTH 8 0
BBX 7 8 0 0
BITMAP
06
04
74
8C
84
84
8C
76
ENDCHAR
STARTCHAR e
ENCODING 101
SWIDTH 888 0
DWIDTH 8 0
BBX 7 6 0 0
BITMAP
7C
82
FE
80
82
7C
ENDCHAR
STARTCHAR f
ENCODING 102
SWIDTH 888 0
DWIDTH 8 0
BBX 7 8 0 0
BITMAP
3C
42
40
78
40
40
40
E0
ENDCHAR
STARTCHAR g
ENCODING 103
SWIDTH 888 0
DWIDTH 8 0
BBX 7 7 0 -1
BITMAP
7A
86
82
7E
02
82
7C
ENDCHAR
STARTCHAR h
ENCODING 104
SWIDTH 888 0
DWIDTH 8 0
BBX 7 8 0 0
BITMAP
E0
40
5C
62
42
42
42
E2
ENDCHAR
STARTCHAR i
ENCODING 105
SWIDTH 444 0
DWIDTH 4 0
BBX 3 8 0 0
BITMAP
40
00
E0
40
40
40
40
E0
ENDCHAR
STARTCHAR j
ENCODING 106
SWIDTH 888 0
DWIDTH 8 0
BBX 7 9 0 -1
BITMAP
04
00
0E
04
04
04
04
84
78
ENDCHAR
STARTCHAR k
ENCODING 107
SWIDTH 777 0
DWIDTH 7 0
BBX 6 8 0 0
BITMAP
E0
44
48
50
60
50
48
E4
ENDCHAR
STARTCHAR l
ENCODING 108
SWIDTH 444 0
DWIDTH 4 0
BBX 3 8 0 0
BITMAP
C0
40
40
40
40
40
40
E0
ENDCHAR
STARTCHAR m
ENCODING 109
SWIDTH 888 0
DWIDTH 8 0
BBX 7 6 0 0
BITMAP
A8
54
54
54
54
D6
ENDCHAR
STARTCHAR n
ENCODING 110
SWIDTH 888 0
DWIDTH 8 0
BBX 7 6 0 0
BITMAP
D8
64
44
44
44
E6
ENDCHAR
STARTCHAR o
ENCODING 111
SWIDTH 777 0
DWIDTH 7 0
BBX 6 6 0 0
BITMAP
78
84
84
84
84
78
ENDCHAR
STARTCHAR p
ENCODING 112
SWIDTH 777 0
DWIDTH 7 0
BBX 6 7 0 -1
BITMAP
D8
64
44
44
78
40
E0
ENDCHAR
STARTCHAR q
ENCODING 113
SWIDTH 777 0
DWIDTH 7 0
BBX 6 7 0 -1
BITMAP
6C
98
88
88
78
08
1C
ENDCHAR
STARTCHAR r
ENCODING 114
SWIDTH 777 0
DWIDTH 7 0
BBX 6 6 0 0
BITMAP
D8
64
40
40
40
E0
ENDCHAR
STARTCHAR s
ENCODING 115
SWIDTH 777 0
DWIDTH 7 0
BBX 6 6 0 0
BITMAP
78
84
70
08
84
78
ENDCHAR
STARTCHAR t
ENCODING 116
SWIDTH 777 0
DWIDTH 7 0
BBX 6 8 0 0
BITMAP
C0
40
F0
40
40
40
44
38
ENDCHAR
STARTCHAR u
ENCODING 117
SWIDTH 888 0
DWIDTH 8 0
BBX 7 6 0 0
BITMAP
84
84
84
84
8C
76
ENDCHAR
STARTCHAR v
ENCODING 118
SWIDTH 666 0
DWIDTH 6 0
BBX 5 6 0 0
BITMAP
88
88
88
88
50
20
ENDCHAR
STARTCHAR w
ENCODING 119
SWIDTH 888 0
DWIDTH 8 0
BBX 7 6 0 0
BITMAP
82
82
82
92
BA
54
ENDCHAR
STARTCHAR x
ENCODING 120
SWIDTH 666 0
DWIDTH 6 0
BBX 5 6 0 0
BITMAP
88
50
20
20
50
88
ENDCHAR
STARTCHAR y
ENCODING 121
SWIDTH 888 0
DWIDTH 8 0
BBX 7 7 0 -1
BITMAP
86
84
84
7C
04
84
78
ENDCHAR
STARTCHAR z
ENCODING 122
SWIDTH 666 0
DWIDTH 6 0
BBX 5 6 0 0
BITMAP
F8
88
10
20
48
F8
ENDCHAR
STARTCHAR braceleft
ENCODING 123
SWIDTH 555 0
DWIDTH 5 0
BBX 4 8 0 0
BITMAP
30
40
40
80
40
40
40
30
ENDCHAR
STARTCHAR bar
ENCODING 124
SWIDTH 222 0
DWIDTH 2 0
BBX 1 8 0 0
BITMAP
80
80
80
80
80
80
80
80
ENDCHAR
STARTCHAR braceright
ENCODING 125
SWIDTH 555 0
DWIDTH 5 0
BBX 4 8 0 0
BITMAP
C0
20
20
10
20
20
20
C0
ENDCHAR
STARTCHAR asciitilde
ENCODING 126
SWIDTH 555 0
DWIDTH 5 0
BBX 4 2 0 6
BITMAP
50
A0
ENDCHAR
ENDFONT
